<svg xmlns="http://www.w3.org/2000/svg" width="174.917" height="164" viewBox="0 0 174.917 164">
    <g id="logo-full-small" transform="translate(-728.508 -786.857)">
        <path id="Path_30"
              fill="#fff"
              data-name="Path 30" d="M-3691.918-1591.643a7.5,7.5,0,0,1-3.334-.787,164.5,164.5,0,0,1-31.393-21.557,112.351,112.351,0,0,1-21.939-25.232c-6.918-11.24-10.426-22.822-10.426-34.424v-52.182a7.416,7.416,0,0,1,1.328-4.246,7.414,7.414,0,0,1,3.51-2.734l59.636-22.364a7.417,7.417,0,0,1,2.617-.474,7.435,7.435,0,0,1,2.618.474l59.635,22.364a7.419,7.419,0,0,1,3.51,2.734,7.423,7.423,0,0,1,1.327,4.246v52.182a63.275,63.275,0,0,1-7.465,29.2v-35.447h-9.629v16.3a11.543,11.543,0,0,0-3.94-2.189,15.909,15.909,0,0,0-5.033-.766,14.84,14.84,0,0,0-7.3,1.751,12.359,12.359,0,0,0-4.9,4.951,15.047,15.047,0,0,0-1.751,7.3,14.845,14.845,0,0,0,1.751,7.3,12.227,12.227,0,0,0,4.924,4.869,15.071,15.071,0,0,0,7.276,1.724,13.092,13.092,0,0,0,9.3-3.447v2.626h6.492l-.125.2-.024.04a112.376,112.376,0,0,1-21.942,25.232,164.619,164.619,0,0,1-31.393,21.557A7.5,7.5,0,0,1-3691.918-1591.643Zm-6.026-74.081v16.139a11.457,11.457,0,0,0,2.708,7.933c1.8,2,4.529,3.009,8.125,3.009a13.912,13.912,0,0,0,5.033-.93,11.008,11.008,0,0,0,4.1-2.736v2.845h9.3v-26.261h-9.628v16.139a6.853,6.853,0,0,1-2.517,2.572,6.749,6.749,0,0,1-3.393.875,3.956,3.956,0,0,1-3.077-1.135,4.961,4.961,0,0,1-1.026-3.406v-15.045Zm-21.938,8.863c-3.631,0-6.456.8-8.4,2.38a8.308,8.308,0,0,0-2.927,6.811,8,8,0,0,0,3.037,6.647,12.591,12.591,0,0,0,7.96,2.38,14.98,14.98,0,0,0,5.142-.821,10.511,10.511,0,0,0,3.721-2.243v2.243h9.027v-15.975a9.827,9.827,0,0,0-3.748-8.179c-2.487-1.942-6.214-2.927-11.078-2.927a33.006,33.006,0,0,0-5.909.52,19.261,19.261,0,0,0-4.6,1.34v6.62a20.706,20.706,0,0,1,8.809-1.86,10.141,10.141,0,0,1,5.17,1.053,3.477,3.477,0,0,1,1.723,3.16v.547a15.793,15.793,0,0,0-3.666-1.231A20.047,20.047,0,0,0-3719.883-1656.861Zm35.016-52.961v38.242h9.628v-14.115a11.676,11.676,0,0,0,3.967,2.16,15.786,15.786,0,0,0,5.006.793,14.837,14.837,0,0,0,7.3-1.75,12.367,12.367,0,0,0,4.9-4.952,15.042,15.042,0,0,0,1.75-7.3,14.841,14.841,0,0,0-1.75-7.3,12.219,12.219,0,0,0-4.924-4.869,15.061,15.061,0,0,0-7.276-1.724,13.1,13.1,0,0,0-9.3,3.446v-2.625Zm-46.34,0,8.808,26.26h8.644l4.486-14.768v0l4.484,14.769h8.644l8.809-26.26h-9.629l-4.214,15.045-4.212-15.045h-7.769l-4.211,15.045-4.213-15.045Zm140.112,71.179c-3.231,0-5.707-.911-7.358-2.708a10.583,10.583,0,0,1-2.49-7.413v-10.286h-3.721v-6.674h3.721v-7.878h9.629v7.878h6.018v6.674h-6.018v8.973a4.737,4.737,0,0,0,.792,3.064,3.576,3.576,0,0,0,2.818.93,7.518,7.518,0,0,0,3.611-.985v7.167a12.894,12.894,0,0,1-3.037.958A22.163,22.163,0,0,1-3591.095-1638.642Zm-16.632-.821h-9.629v-26.261h9.629v26.26Zm-17.288,0a3.38,3.38,0,0,1-2.435-.985,3.246,3.246,0,0,1-1.012-2.407,3.489,3.489,0,0,1,1.012-2.516,3.289,3.289,0,0,1,2.435-1.04,3.355,3.355,0,0,1,2.49,1.04,3.487,3.487,0,0,1,1.011,2.516,3.245,3.245,0,0,1-1.011,2.407A3.45,3.45,0,0,1-3625.015-1639.463Zm-7.276,0h-2.809c1-1.64,1.947-3.316,2.809-4.983v4.982Zm-85.074-5.088a4.57,4.57,0,0,1-2.927-.821,2.8,2.8,0,0,1-1.012-2.3,2.9,2.9,0,0,1,1.04-2.408,4.691,4.691,0,0,1,2.954-.821,9.411,9.411,0,0,1,5.362,1.587v2.3a5.479,5.479,0,0,1-2.243,1.778A7.5,7.5,0,0,1-3717.365-1644.551Zm68.989-1.532a6.637,6.637,0,0,1-4.76-1.724,6.261,6.261,0,0,1-1.8-4.732,6.352,6.352,0,0,1,1.8-4.76,6.578,6.578,0,0,1,4.76-1.751,7.181,7.181,0,0,1,3.938,1.122,6.339,6.339,0,0,1,2.517,3.037v4.65a6.341,6.341,0,0,1-2.517,3.037A7.181,7.181,0,0,1-3648.376-1646.083Zm35.834-23.142a5.1,5.1,0,0,1-3.665-1.423,4.819,4.819,0,0,1-1.477-3.611,4.84,4.84,0,0,1,1.477-3.583,5.046,5.046,0,0,1,3.665-1.45,5.073,5.073,0,0,1,3.639,1.45,4.8,4.8,0,0,1,1.5,3.583,4.8,4.8,0,0,1-1.5,3.584A5.075,5.075,0,0,1-3612.542-1669.225Zm-56.242-21.011a7.175,7.175,0,0,1-3.939-1.122,6.336,6.336,0,0,1-2.516-3.036v-4.651a6.337,6.337,0,0,1,2.516-3.036,7.176,7.176,0,0,1,3.939-1.122,6.63,6.63,0,0,1,4.76,1.724,6.254,6.254,0,0,1,1.806,4.732,6.348,6.348,0,0,1-1.806,4.76A6.574,6.574,0,0,1-3668.784-1690.236Z" transform="translate(4487.518 2542.5)"/>
    </g>
</svg>