<svg xmlns="http://www.w3.org/2000/svg" width="457.031" height="164" viewBox="0 0 457.031 164">
    <g id="final_outline_logo" transform="translate(-728.508 -786.857)">
        <g id="Logo_-_Text" transform="translate(-97.009 323.536)">
            <g id="Group_5">
                <path id="Path_28"
                      d="M30.5-69.9H47.9L75.8,0H57.7L52.1-14.4H26.3L20.7,0H2.5ZM47.7-28,39.2-51.5,30.6-28ZM98.6,1.5Q88.7,1.5,83.75-4T78.8-18.5V-48H96.4v27.5q0,8.3,7.5,8.3a12.275,12.275,0,0,0,6.2-1.6,12.471,12.471,0,0,0,4.6-4.7V-48h17.6V0h-17V-5.2a20.048,20.048,0,0,1-7.5,5A25.307,25.307,0,0,1,98.6,1.5Zm66.2,0a27.421,27.421,0,0,1-13.3-3.15,22.246,22.246,0,0,1-9-8.9,27,27,0,0,1-3.2-13.35,27.362,27.362,0,0,1,3.2-13.35,22.492,22.492,0,0,1,8.95-9.05,27,27,0,0,1,13.35-3.2,28.942,28.942,0,0,1,9.2,1.4,20.975,20.975,0,0,1,7.2,4V-73.9h17.6V0h-17V-4.8Q175.1,1.5,164.8,1.5Zm4.6-13.6a13.062,13.062,0,0,0,7.2-2.05,11.531,11.531,0,0,0,4.6-5.55v-8.5a11.531,11.531,0,0,0-4.6-5.55,13.062,13.062,0,0,0-7.2-2.05,11.967,11.967,0,0,0-8.7,3.2,11.556,11.556,0,0,0-3.3,8.7q0,5.5,3.3,8.65A12.076,12.076,0,0,0,169.4-12.1ZM212.1,0a6.152,6.152,0,0,1-4.45-1.8,5.9,5.9,0,0,1-1.85-4.4,6.352,6.352,0,0,1,1.85-4.6,5.988,5.988,0,0,1,4.45-1.9,6.1,6.1,0,0,1,4.55,1.9,6.352,6.352,0,0,1,1.85,4.6,5.9,5.9,0,0,1-1.85,4.4A6.274,6.274,0,0,1,212.1,0Zm22.8-54.4a9.282,9.282,0,0,1-6.7-2.6,8.769,8.769,0,0,1-2.7-6.6,8.813,8.813,0,0,1,2.7-6.55,9.187,9.187,0,0,1,6.7-2.65,9.234,9.234,0,0,1,6.65,2.65,8.734,8.734,0,0,1,2.75,6.55,8.734,8.734,0,0,1-2.75,6.55A9.234,9.234,0,0,1,234.9-54.4ZM226.1-48h17.6V0H226.1Zm48,49.5q-8.9,0-13.45-4.95T256.1-17V-35.8h-6.8V-48h6.8V-62.4h17.6V-48h11v12.2h-11v16.4q0,3.9,1.45,5.6t5.15,1.7a13.676,13.676,0,0,0,6.6-1.8V-.8A23.438,23.438,0,0,1,281.35.95,40.387,40.387,0,0,1,274.1,1.5Z"
                      transform="translate(993.819 571.322)" fill="#132633"/>
                <path id="Path_27"
                      d="M2.5-48H20.1l7.7,27.5L35.5-48H49.7l7.7,27.5L65.1-48H82.7L66.6,0H50.8L42.6-27,34.4,0H18.6Zm84.7,0h17v4.8q6.7-6.3,17-6.3a27.421,27.421,0,0,1,13.3,3.15,22.246,22.246,0,0,1,9,8.9,27,27,0,0,1,3.2,13.35,27.362,27.362,0,0,1-3.2,13.35,22.492,22.492,0,0,1-8.95,9.05A27,27,0,0,1,121.2,1.5,28.744,28.744,0,0,1,112.05.05,21.251,21.251,0,0,1,104.8-3.9V21.9H87.2Zm29.4,35.8a11.967,11.967,0,0,0,8.7-3.2,11.556,11.556,0,0,0,3.3-8.7q0-5.5-3.3-8.65a12.076,12.076,0,0,0-8.7-3.15,13.062,13.062,0,0,0-7.2,2.05,11.531,11.531,0,0,0-4.6,5.55v8.5a11.53,11.53,0,0,0,4.6,5.55A13.062,13.062,0,0,0,116.6-12.2Z"
                      transform="translate(850.819 571.322)" fill="#132633"/>
            </g>
            <path id="Path_29"
                  d="M2.023,0H6.8V-2.8h.216A5.159,5.159,0,0,0,11.966.284c3.977,0,7.08-3.148,7.08-8.989,0-6-3.239-8.977-7.068-8.977a5.143,5.143,0,0,0-4.966,3.159H6.864v-8.75H2.023ZM6.761-8.727c0-3.114,1.318-5.1,3.67-5.1,2.4,0,3.67,2.08,3.67,5.1,0,3.045-1.3,5.159-3.67,5.159C8.1-3.568,6.761-5.614,6.761-8.727ZM24.03,6.545a6.3,6.3,0,0,0,6.5-4.659l6.784-19.318-5.125-.023L28.542-4.636H28.36L24.746-17.455H19.655L25.917.5l-.284.739C25,2.875,23.78,2.955,22.076,2.432L20.985,6.045A8.356,8.356,0,0,0,24.03,6.545ZM60.4-23.273V-8.58A4.431,4.431,0,0,1,55.671-4a4.437,4.437,0,0,1-4.727-4.58V-23.273h-4.92V-8.159c0,5.091,3.841,8.489,9.648,8.489,5.784,0,9.648-3.4,9.648-8.489V-23.273ZM73.474-10.091c.011-2.25,1.352-3.568,3.307-3.568s3.114,1.273,3.1,3.409V0h4.841V-11.114c0-4.068-2.386-6.568-6.023-6.568a5.273,5.273,0,0,0-5.25,3.307h-.2v-3.08H68.633V0h4.841ZM87.891,0h4.841V-17.455H87.891Zm2.432-19.7a2.55,2.55,0,0,0,2.625-2.455A2.549,2.549,0,0,0,90.323-24.6a2.546,2.546,0,0,0-2.614,2.443A2.547,2.547,0,0,0,90.323-19.7Zm14.917,2.25h-3.284v-4.182H97.115v4.182H94.728v3.636h2.386v9.091c-.023,3.42,2.307,5.114,5.818,4.966a9.416,9.416,0,0,0,2.625-.455l-.761-3.6a6.614,6.614,0,0,1-1.2.159c-.966,0-1.636-.364-1.636-1.7v-8.455h3.284ZM115.52.341c4.318,0,7.227-2.1,7.909-5.341l-4.477-.3A3.287,3.287,0,0,1,115.6-3.273c-2.42,0-3.955-1.6-3.955-4.2v-.011h11.886v-1.33c0-5.932-3.591-8.864-8.2-8.864-5.136,0-8.466,3.648-8.466,9.034C106.861-3.114,110.145.341,115.52.341Zm-3.875-10.83a3.687,3.687,0,0,1,3.761-3.58,3.44,3.44,0,0,1,3.568,3.58ZM132.482.284a5.159,5.159,0,0,0,4.955-3.08h.2V0h4.773V-23.273h-4.83v8.75h-.148a5.143,5.143,0,0,0-4.966-3.159c-3.83,0-7.068,2.977-7.068,8.977C125.4-2.864,128.505.284,132.482.284Zm1.534-3.852c-2.375,0-3.67-2.114-3.67-5.159,0-3.023,1.273-5.1,3.67-5.1,2.352,0,3.67,1.989,3.67,5.1S136.346-3.568,134.016-3.568Zm33.2-8.068c0-7.614-4.727-11.955-10.9-11.955-6.2,0-10.9,4.341-10.9,11.955,0,7.58,4.693,11.955,10.9,11.955C162.49.318,167.217-4.023,167.217-11.636Zm-4.989,0c0,4.932-2.341,7.6-5.909,7.6s-5.909-2.67-5.909-7.6,2.33-7.6,5.909-7.6S162.229-16.568,162.229-11.636ZM186.4-17.455H181.27L177.657-4.966h-.182L173.85-17.455h-5.114L174.839,0h5.455Zm9.212,17.8c4.318,0,7.227-2.1,7.909-5.341l-4.477-.3a3.287,3.287,0,0,1-3.352,2.023c-2.42,0-3.955-1.6-3.955-4.2v-.011h11.886v-1.33c0-5.932-3.591-8.864-8.2-8.864-5.136,0-8.466,3.648-8.466,9.034C186.949-3.114,190.233.341,195.608.341Zm-3.875-10.83a3.687,3.687,0,0,1,3.761-3.58,3.44,3.44,0,0,1,3.568,3.58ZM206.138,0h4.841V-9.875a3.524,3.524,0,0,1,3.7-3.625,8.142,8.142,0,0,1,2.045.261v-4.3a7.266,7.266,0,0,0-1.523-.17,4.24,4.24,0,0,0-4.193,3.3h-.182v-3.045h-4.693Z"
                  transform="translate(1065.819 607.321)" fill="#132633" opacity="0.5"/>
        </g>
        <path id="Path_21"
              d="M70.091,165a7.451,7.451,0,0,1-3.334-.787,165.123,165.123,0,0,1-31.393-21.557,112.371,112.371,0,0,1-21.94-25.232C6.507,106.184,3,94.6,3,83V30.818a7.455,7.455,0,0,1,4.837-6.98L67.473,1.475a7.455,7.455,0,0,1,5.235,0l59.636,22.364a7.455,7.455,0,0,1,4.837,6.98V83c0,11.6-3.507,23.184-10.424,34.424a112.372,112.372,0,0,1-21.94,25.232,165.123,165.123,0,0,1-31.393,21.557A7.451,7.451,0,0,1,70.091,165Z"
              transform="translate(725.508 785.857)" fill="#132633" opacity="0.25"/>
    </g>
</svg>
